{
	"asset":{
		"generator":"Khronos glTF Blender I/O v4.3.47",
		"version":"2.0"
	},
	"extensionsUsed":[
		"KHR_materials_emissive_strength"
	],
	"scene":0,
	"scenes":[
		{
			"name":"Scene",
			"nodes":[
				0
			]
		}
	],
	"nodes":[
		{
			"mesh":0,
			"name":"Sphere.001",
			"rotation":[
				0.07702749222517014,
				0.02225414849817753,
				0.12137514352798462,
				0.9893632531166077
			],
			"scale":[
				0.7852216958999634,
				0.7852216958999634,
				0.7852216958999634
			],
			"translation":[
				-0.03039652109146118,
				-5.106808662414551,
				-0.039428338408470154
			]
		}
	],
	"materials":[
		{
			"doubleSided":true,
			"name":"gris",
			"pbrMetallicRoughness":{
				"baseColorFactor":[
					0.5971980094909668,
					0.6239610314369202,
					0.7454046010971069,
					1
				],
				"metallicFactor":0,
				"roughnessFactor":0.5
			}
		},
		{
			"doubleSided":true,
			"name":"blanc",
			"pbrMetallicRoughness":{
				"baseColorFactor":[
					0.800000011920929,
					0.800000011920929,
					0.800000011920929,
					1
				],
				"metallicFactor":0,
				"roughnessFactor":0.20000000298023224
			}
		},
		{
			"doubleSided":true,
			"name":"rouge",
			"pbrMetallicRoughness":{
				"baseColorFactor":[
					0.7990986704826355,
					0.15292616188526154,
					0.2195262610912323,
					1
				],
				"metallicFactor":0,
				"roughnessFactor":0.5
			}
		},
		{
			"doubleSided":true,
			"name":"noire",
			"pbrMetallicRoughness":{
				"baseColorFactor":[
					0.14995884895324707,
					0.1499599665403366,
					0.14995989203453064,
					1
				],
				"metallicFactor":0,
				"roughnessFactor":0.20000000298023224
			}
		},
		{
			"doubleSided":true,
			"emissiveFactor":[
				1,
				0.05740136565225952,
				0
			],
			"extensions":{
				"KHR_materials_emissive_strength":{
					"emissiveStrength":20.59659719467163
				}
			},
			"name":"feu",
			"pbrMetallicRoughness":{
				"baseColorFactor":[
					0.800000011920929,
					0.800000011920929,
					0.800000011920929,
					1
				],
				"metallicFactor":0,
				"roughnessFactor":0.5
			}
		},
		{
			"doubleSided":true,
			"name":"bleu",
			"pbrMetallicRoughness":{
				"baseColorFactor":[
					0.2746751606464386,
					0.45641136169433594,
					0.5647119283676147,
					1
				],
				"metallicFactor":0,
				"roughnessFactor":0.20000000298023224
			}
		},
		{
			"doubleSided":true,
			"name":"hublo",
			"pbrMetallicRoughness":{
				"baseColorFactor":[
					0.37625935673713684,
					0.5149178504943848,
					0.7991032004356384,
					1
				],
				"roughnessFactor":0
			}
		}
	],
	"meshes":[
		{
			"name":"Mesh",
			"primitives":[
				{
					"attributes":{
						"POSITION":0,
						"NORMAL":1,
						"TEXCOORD_0":2
					},
					"indices":3,
					"material":0
				},
				{
					"attributes":{
						"POSITION":4,
						"NORMAL":5,
						"TEXCOORD_0":6
					},
					"indices":7,
					"material":1
				},
				{
					"attributes":{
						"POSITION":8,
						"NORMAL":9,
						"TEXCOORD_0":10
					},
					"indices":11,
					"material":2
				},
				{
					"attributes":{
						"POSITION":12,
						"NORMAL":13,
						"TEXCOORD_0":14
					},
					"indices":15,
					"material":3
				},
				{
					"attributes":{
						"POSITION":16,
						"NORMAL":17,
						"TEXCOORD_0":18
					},
					"indices":19,
					"material":4
				},
				{
					"attributes":{
						"POSITION":20,
						"NORMAL":21,
						"TEXCOORD_0":22
					},
					"indices":23,
					"material":5
				},
				{
					"attributes":{
						"POSITION":24,
						"NORMAL":25,
						"TEXCOORD_0":26
					},
					"indices":27,
					"material":6
				}
			]
		}
	],
	"accessors":[
		{
			"bufferView":0,
			"componentType":5126,
			"count":35208,
			"max":[
				0.9872305393218994,
				1.6474756002426147,
				1.6551282405853271
			],
			"min":[
				-2.4376602172851562,
				-2.0190839767456055,
				-0.9872310161590576
			],
			"type":"VEC3"
		},
		{
			"bufferView":1,
			"componentType":5126,
			"count":35208,
			"type":"VEC3"
		},
		{
			"bufferView":2,
			"componentType":5126,
			"count":35208,
			"type":"VEC2"
		},
		{
			"bufferView":3,
			"componentType":5123,
			"count":190464,
			"type":"SCALAR"
		},
		{
			"bufferView":4,
			"componentType":5126,
			"count":775,
			"max":[
				2.9637820720672607,
				7.370832443237305,
				0.7981725335121155
			],
			"min":[
				-0.1447373777627945,
				4.2410969734191895,
				-2.3483035564422607
			],
			"type":"VEC3"
		},
		{
			"bufferView":5,
			"componentType":5126,
			"count":775,
			"type":"VEC3"
		},
		{
			"bufferView":6,
			"componentType":5126,
			"count":775,
			"type":"VEC2"
		},
		{
			"bufferView":7,
			"componentType":5123,
			"count":3840,
			"type":"SCALAR"
		},
		{
			"bufferView":8,
			"componentType":5126,
			"count":2535,
			"max":[
				3.208000421524048,
				8.236200332641602,
				0.7051355838775635
			],
			"min":[
				-0.7945401072502136,
				3.585268974304199,
				-2.947418212890625
			],
			"type":"VEC3"
		},
		{
			"bufferView":9,
			"componentType":5126,
			"count":2535,
			"type":"VEC3"
		},
		{
			"bufferView":10,
			"componentType":5126,
			"count":2535,
			"type":"VEC2"
		},
		{
			"bufferView":11,
			"componentType":5123,
			"count":10752,
			"type":"SCALAR"
		},
		{
			"bufferView":12,
			"componentType":5126,
			"count":898,
			"max":[
				2.389390468597412,
				4.877340316772461,
				0.7322992086410522
			],
			"min":[
				-0.22777880728244781,
				3.525573968887329,
				-1.8889397382736206
			],
			"type":"VEC3"
		},
		{
			"bufferView":13,
			"componentType":5126,
			"count":898,
			"type":"VEC3"
		},
		{
			"bufferView":14,
			"componentType":5126,
			"count":898,
			"type":"VEC2"
		},
		{
			"bufferView":15,
			"componentType":5123,
			"count":4992,
			"type":"SCALAR"
		},
		{
			"bufferView":16,
			"componentType":5126,
			"count":169,
			"max":[
				1.9495385885238647,
				4.2479329109191895,
				0.5261768698692322
			],
			"min":[
				-0.08500014245510101,
				2.1884243488311768,
				-1.5013384819030762
			],
			"type":"VEC3"
		},
		{
			"bufferView":17,
			"componentType":5126,
			"count":169,
			"type":"VEC3"
		},
		{
			"bufferView":18,
			"componentType":5126,
			"count":169,
			"type":"VEC2"
		},
		{
			"bufferView":19,
			"componentType":5123,
			"count":864,
			"type":"SCALAR"
		},
		{
			"bufferView":20,
			"componentType":5126,
			"count":6349,
			"max":[
				2.5624959468841553,
				7.213574409484863,
				1.0698235034942627
			],
			"min":[
				0.5598593950271606,
				5.006722450256348,
				-1.0944709777832031
			],
			"type":"VEC3"
		},
		{
			"bufferView":21,
			"componentType":5126,
			"count":6349,
			"type":"VEC3"
		},
		{
			"bufferView":22,
			"componentType":5126,
			"count":6349,
			"type":"VEC2"
		},
		{
			"bufferView":23,
			"componentType":5123,
			"count":31488,
			"type":"SCALAR"
		},
		{
			"bufferView":24,
			"componentType":5126,
			"count":2002,
			"max":[
				2.2791545391082764,
				6.937489032745361,
				0.9184256196022034
			],
			"min":[
				0.8507466912269592,
				5.57200813293457,
				0.44210711121559143
			],
			"type":"VEC3"
		},
		{
			"bufferView":25,
			"componentType":5126,
			"count":2002,
			"type":"VEC3"
		},
		{
			"bufferView":26,
			"componentType":5126,
			"count":2002,
			"type":"VEC2"
		},
		{
			"bufferView":27,
			"componentType":5123,
			"count":9984,
			"type":"SCALAR"
		}
	],
	"bufferViews":[
		{
			"buffer":0,
			"byteLength":422496,
			"byteOffset":0,
			"target":34962
		},
		{
			"buffer":0,
			"byteLength":422496,
			"byteOffset":422496,
			"target":34962
		},
		{
			"buffer":0,
			"byteLength":281664,
			"byteOffset":844992,
			"target":34962
		},
		{
			"buffer":0,
			"byteLength":380928,
			"byteOffset":1126656,
			"target":34963
		},
		{
			"buffer":0,
			"byteLength":9300,
			"byteOffset":1507584,
			"target":34962
		},
		{
			"buffer":0,
			"byteLength":9300,
			"byteOffset":1516884,
			"target":34962
		},
		{
			"buffer":0,
			"byteLength":6200,
			"byteOffset":1526184,
			"target":34962
		},
		{
			"buffer":0,
			"byteLength":7680,
			"byteOffset":1532384,
			"target":34963
		},
		{
			"buffer":0,
			"byteLength":30420,
			"byteOffset":1540064,
			"target":34962
		},
		{
			"buffer":0,
			"byteLength":30420,
			"byteOffset":1570484,
			"target":34962
		},
		{
			"buffer":0,
			"byteLength":20280,
			"byteOffset":1600904,
			"target":34962
		},
		{
			"buffer":0,
			"byteLength":21504,
			"byteOffset":1621184,
			"target":34963
		},
		{
			"buffer":0,
			"byteLength":10776,
			"byteOffset":1642688,
			"target":34962
		},
		{
			"buffer":0,
			"byteLength":10776,
			"byteOffset":1653464,
			"target":34962
		},
		{
			"buffer":0,
			"byteLength":7184,
			"byteOffset":1664240,
			"target":34962
		},
		{
			"buffer":0,
			"byteLength":9984,
			"byteOffset":1671424,
			"target":34963
		},
		{
			"buffer":0,
			"byteLength":2028,
			"byteOffset":1681408,
			"target":34962
		},
		{
			"buffer":0,
			"byteLength":2028,
			"byteOffset":1683436,
			"target":34962
		},
		{
			"buffer":0,
			"byteLength":1352,
			"byteOffset":1685464,
			"target":34962
		},
		{
			"buffer":0,
			"byteLength":1728,
			"byteOffset":1686816,
			"target":34963
		},
		{
			"buffer":0,
			"byteLength":76188,
			"byteOffset":1688544,
			"target":34962
		},
		{
			"buffer":0,
			"byteLength":76188,
			"byteOffset":1764732,
			"target":34962
		},
		{
			"buffer":0,
			"byteLength":50792,
			"byteOffset":1840920,
			"target":34962
		},
		{
			"buffer":0,
			"byteLength":62976,
			"byteOffset":1891712,
			"target":34963
		},
		{
			"buffer":0,
			"byteLength":24024,
			"byteOffset":1954688,
			"target":34962
		},
		{
			"buffer":0,
			"byteLength":24024,
			"byteOffset":1978712,
			"target":34962
		},
		{
			"buffer":0,
			"byteLength":16016,
			"byteOffset":2002736,
			"target":34962
		},
		{
			"buffer":0,
			"byteLength":19968,
			"byteOffset":2018752,
			"target":34963
		}
	],
	"buffers":[
		{
			"byteLength":2038720,
			"uri":"fusee.bin"
		}
	]
}
