<?xml version="1.0" encoding="UTF-8"?>
<svg id="Calque_2" xmlns="http://www.w3.org/2000/svg" version="1.1" viewBox="0 0 2082.3 590.4">
  <!-- Generator: Adobe Illustrator 29.1.0, SVG Export Plug-In . SVG Version: 2.1.0 Build 142)  -->
  <defs>
    <style>
      .st0 {
        isolation: isolate;
        fill: #fff;
      }

      .st1 {
        fill: #3e3f92;
      }
    </style>
  </defs>
  <g id="Calque_9">
    <g>
      <polygon class="st1" points="399 20.4 399 380.4 327 452.4 144 452.4 144 380.4 144.2 380.4 216.2 308.4 326.7 308.7 326.7 236.4 215.8 236.4 215.8 236.6 144 308.4 72 308.4 72 452.4 0 452.4 0 308.4 72 236.5 72 236.5 72 236.4 144 236.4 144 164.4 326.7 164.4 326.7 92.4 72 92.4 72 236.4 72 236.5 0 236.5 0 92.4 72 20.4 399 20.4"/>
      <g class="st0">
        <g class="st0">
          <path d="M526.2,400.4V60.4h229.4v40.1h-184.4v105.3h159.6v40.1h-159.6v154.5h-45Z"/>
        </g>
        <g class="st0">
          <path d="M780,277.3c0-45.6,12.7-79.4,38-101.4,21.2-18.2,47-27.4,77.5-27.4s61.5,11.1,83,33.3c21.5,22.2,32.2,52.8,32.2,92s-4.8,56.6-14.3,74.8c-9.5,18.2-23.3,32.3-41.5,42.3-18.2,10-38,15.1-59.5,15.1-34.5,0-62.4-11.1-83.6-33.2-21.3-22.1-31.9-54-31.9-95.6ZM822.9,277.3c0,31.5,6.9,55.2,20.6,70.9,13.8,15.7,31.1,23.5,52,23.5s38-7.9,51.7-23.7c13.8-15.8,20.6-39.8,20.6-72.1s-6.9-53.5-20.8-69.2c-13.8-15.7-31-23.5-51.6-23.5s-38.2,7.8-52,23.4c-13.8,15.6-20.6,39.2-20.6,70.7Z"/>
          <path d="M1058.7,400.4V60.4h41.7v340h-41.7Z"/>
          <path d="M1165.4,108.4v-48h41.7v48h-41.7ZM1165.4,400.4v-246.3h41.7v246.3h-41.7Z"/>
          <path d="M1255.2,277.3c0-45.6,12.7-79.4,38-101.4,21.2-18.2,47-27.4,77.5-27.4s61.5,11.1,83,33.3c21.5,22.2,32.2,52.8,32.2,92s-4.8,56.6-14.3,74.8c-9.5,18.2-23.3,32.3-41.5,42.3-18.2,10-38,15.1-59.5,15.1-34.5,0-62.4-11.1-83.6-33.2-21.3-22.1-31.9-54-31.9-95.6ZM1298.1,277.3c0,31.5,6.9,55.2,20.6,70.9,13.8,15.7,31.1,23.5,52,23.5s38-7.9,51.7-23.7c13.8-15.8,20.6-39.8,20.6-72.1s-6.9-53.5-20.8-69.2c-13.8-15.7-31-23.5-51.6-23.5s-38.2,7.8-52,23.4c-13.8,15.6-20.6,39.2-20.6,70.7Z"/>
          <path d="M1694.7,400.4v-31.1c-15.6,24.4-38.6,36.6-68.9,36.6s-37.7-5.4-54.2-16.2c-16.5-10.8-29.2-25.9-38.3-45.3-9-19.4-13.6-41.7-13.6-66.9s4.1-46.9,12.3-66.9c8.2-20,20.5-35.4,36.9-46,16.4-10.7,34.7-16,55-16s28.1,3.1,39.7,9.4c11.6,6.3,21,14.4,28.3,24.5V60.4h41.5v340h-38.7ZM1562.7,277.5c0,31.5,6.6,55.1,19.9,70.7,13.3,15.6,29,23.4,47.1,23.4s33.7-7.5,46.5-22.4c12.8-14.9,19.1-37.7,19.1-68.3s-6.5-58.4-19.5-74.2-29-23.7-48-23.7-34.1,7.6-46.5,22.7c-12.4,15.2-18.7,39-18.7,71.7Z"/>
          <path d="M1967.7,321.1l43.1,5.3c-6.8,25.2-19.4,44.8-37.8,58.7-18.4,13.9-41.9,20.9-70.5,20.9s-64.6-11.1-85.7-33.3c-21.1-22.2-31.7-53.3-31.7-93.4s10.7-73.6,32-96.5c21.3-22.9,49-34.3,83-34.3s59.8,11.2,80.7,33.6c20.9,22.4,31.3,54,31.3,94.6s0,6.2-.2,11.1h-183.7c1.5,27.1,9.2,47.8,23,62.2,13.8,14.4,30.9,21.6,51.5,21.6s28.4-4,39.2-12.1c10.8-8,19.4-20.9,25.7-38.5ZM1830.6,253.6h137.5c-1.9-20.7-7.1-36.3-15.8-46.6-13.3-16.1-30.5-24.1-51.7-24.1s-35.3,6.4-48.4,19.3c-13.1,12.8-20.3,30-21.7,51.5Z"/>
        </g>
        <text/>
      </g>
    </g>
  </g>
</svg>